<svg xmlns="http://www.w3.org/2000/svg" xmlns:xlink="http://www.w3.org/1999/xlink" width="56" height="56" viewBox="0 0 56 56">
  <defs>
    <filter id="Ellipse_12" x="0" y="0" width="56" height="56" filterUnits="userSpaceOnUse">
      <feOffset dy="1" input="SourceAlpha"/>
      <feGaussianBlur stdDeviation="4" result="blur"/>
      <feFlood flood-opacity="0.149"/>
      <feComposite operator="in" in2="blur"/>
      <feComposite in="SourceGraphic"/>
    </filter>
  </defs>
  <g id="Group_174" data-name="Group 174" transform="translate(12 11)">
    <g transform="matrix(1, 0, 0, 1, -12, -11)" filter="url(#Ellipse_12)">
      <circle id="Ellipse_12-2" data-name="Ellipse 12" cx="16" cy="16" r="16" transform="translate(12 11)" fill="#fff"/>
    </g>
    <path id="Path_147" data-name="Path 147" d="M372.1,847l5.022-5.022a.573.573,0,0,0-.811-.81l-5.378,5.378a.576.576,0,0,0-.058.039.6.6,0,0,0,0,.83.576.576,0,0,0,.058.039l5.378,5.378a.573.573,0,0,0,.811-.81Z" transform="translate(-359 -831)" fill="#878787"/>
  </g>
</svg>